<svg xmlns="http://www.w3.org/2000/svg" xmlns:xlink="http://www.w3.org/1999/xlink" width="329" height="281" viewBox="0 0 329 281">
    <defs>
        <linearGradient id="b" x1="0%" y1="50%" y2="50%">
            <stop offset="0%" stop-color="#1f3675"/>
            <stop offset="100%" stop-color="#0A183D"/>
        </linearGradient>
        <path id="a" d="M86 41.69C131.2 27.341 151.366.88 181.674.09c30.308-.789 26.398 3.123 62.799 27.812 36.4 24.69 64.259 22.113 77.859 61.293 13.6 39.18 6.549 101.573-22.55 152.006-29.098 50.433-62.392 29.214-118.108 36.11-55.716 6.898-69.211 3.823-95.628-9.652C28.682 250.022 0 209.094 0 144.878S28.667 46.266 86 41.69z"/>
        <path id="d" d="M0 .132h29.039V85.06H0z"/>
        <path id="f" d="M.394.178h1.808v3.709H.394z"/>
    </defs>
    <g fill="none" fill-rule="evenodd">
        <g>
            <mask id="c" fill="#fff">
                <use xlink:href="#a"/>
            </mask>
            <use fill="url(#b)" opacity=".9" transform="matrix(-1 0 0 1 329 0)" xlink:href="#a"/>
            <g mask="url(#c)">
                
                <path fill="#FFFFFE" d="M66.405 138.168l-.002.001a.09.09 0 0 1-.126-.023l-21.795-32.04a.093.093 0 0 1 .024-.127.09.09 0 0 1 .126.023l21.795 32.04a.092.092 0 0 1-.022.126"/>
                <path fill="#FFFFFE" d="M53.99 119.882l-.17-.082-12.526-6.062a.092.092 0 0 1 .078-.165l12.43 6.015-.372-13.531a.091.091 0 0 1 .088-.094.091.091 0 0 1 .093.088l.38 13.83M61.784 130.952L43.46 126.41a.092.092 0 0 1 .043-.177l18.152 4.499 4.44-16.06a.09.09 0 0 1 .11-.063.092.092 0 0 1 .064.113l-4.486 16.23"/>
                
                <path fill="#FFFFFE" d="M246.08 139.168l.001.001a.09.09 0 0 0 .126-.023l21.795-32.04a.093.093 0 0 0-.024-.127.09.09 0 0 0-.126.023l-21.794 32.04a.092.092 0 0 0 .021.126"/>
                <path fill="#FFFFFE" d="M258.494 120.882l.17-.082 12.527-6.062a.092.092 0 0 0-.079-.165l-12.429 6.015.371-13.531a.091.091 0 0 0-.088-.094.091.091 0 0 0-.093.088l-.38 13.83M250.7 131.952l18.324-4.542a.092.092 0 0 0-.044-.177l-18.152 4.499-4.439-16.06a.09.09 0 0 0-.111-.063.092.092 0 0 0-.063.113l4.486 16.23"/>
                <g>
                    
                    <path fill="#FFFFFE" d="M181.442 78.286l.002.001a.09.09 0 0 0 .126-.023l21.795-32.04a.093.093 0 0 0-.023-.128.09.09 0 0 0-.126.024L181.42 78.16a.092.092 0 0 0 .021.126"/>
                    <path fill="#FFFFFE" d="M193.857 60l.17-.082 12.527-6.062a.092.092 0 0 0-.079-.165l-12.429 6.015.372-13.531a.091.091 0 0 0-.088-.095.091.091 0 0 0-.094.09L193.857 60M186.064 71.07l18.323-4.542a.092.092 0 0 0-.043-.177L186.19 70.85l-4.438-16.06a.09.09 0 0 0-.112-.063.092.092 0 0 0-.063.113l4.486 16.23"/>
                </g>
                <g>
                    
                    <path fill="#FFFFFE" d="M132.768 86.286l-.001.001a.09.09 0 0 1-.127-.023l-21.794-32.04a.093.093 0 0 1 .023-.128.09.09 0 0 1 .126.024l21.795 32.04a.092.092 0 0 1-.022.126"/>
                    <path fill="#FFFFFE" d="M120.354 68l-.17-.082-12.527-6.062a.092.092 0 0 1 .078-.165l12.43 6.015-.372-13.531a.091.091 0 0 1 .088-.095.091.091 0 0 1 .093.09l.38 13.83M128.147 79.07l-18.323-4.542a.092.092 0 0 1 .043-.177l18.153 4.499 4.438-16.06a.09.09 0 0 1 .112-.063.092.092 0 0 1 .063.113l-4.486 16.23"/>
                </g>
                <g>
                    <path fill="#5398C3" d="M64.185 78.513h188.012v-3.327H64.185z"/>
                    
                    
                    
                    
                    <path fill="#92C1DB" d="M64.185 81.455h188.034v-2.963H64.185z"/>
                    <path fill="#337CAF" d="M67.827 101.929h179.166V81.42H67.827z"/>
                    <path fill="#337CAF" d="M66.262 140.188H247.05v-39.662H66.26z"/>
                    <path fill="#3D89BA" d="M118.13 140.101h47.697V94.647H118.13z"/>
                    <path fill="#92C1DB" d="M121.723 140.101h40.51v-35.535h-40.51z"/>
                    <path fill="#205C8C" d="M122.922 140.103h38.113v-34.351h-38.113z"/>
                    <path fill="#A0A19D" d="M162.25 114.523l-.03-.282h.03v.282"/>
                    <path fill="#3D89BA" d="M168.89 140.101h47.7V94.647h-47.7z"/>
                    <path fill="#92C1DB" d="M171.973 140.363h40.51V104.87h-40.51z"/>
                    <path fill="#205C8C" d="M173.172 140.409h38.113v-34.35h-38.113zM221.13 131.095h20.794V110.49h-20.795zM97.537 131.095h18.526V110.49H97.537z"/>
                    <path fill="#286B9E" d="M77.786 140.101H94.39v-29.61H77.786z"/>
                    <path fill="#D11C21" d="M78.64 140.101h14.896V111.46H78.64z"/>
                    <path fill="#205C8C" d="M66.262 131.095h7.943V110.49h-7.943z"/>
                    <path fill="#BAD9E9" d="M79.764 126.255h12.648V113.07H79.764z"/>
                    <path fill="#FFF" d="M89.156 128.54h3.256v-.63h-3.256zM83.394 123.07h5.388v-7.698h-5.388z"/>
                    <path fill="#ED6C0D" d="M84.022 116.642h4.132v-.74h-4.132z"/>
                    <path fill="#205C8C" d="M84.022 117.836h4.132v-.37h-4.132zM84.022 118.678h4.132v-.37h-4.132zM84.022 119.519h4.132v-.37h-4.132zM84.022 120.36h4.132v-.37h-4.132zM84.022 121.202h4.132v-.37h-4.132zM84.022 122.044h4.132v-.37h-4.132z"/>
                    <path fill="#92C1DB" d="M64.115 104.394h54.014v-3.868H64.115zM252.274 100.526v3.868h-35.685v-3.868h35.685z"/>
                    <path fill="#286B9E" d="M70.234 92.257h45.402v-1.058H70.234zM70.234 94.418h45.402v-1.057H70.234zM70.234 96.58h45.402v-1.058H70.234zM70.234 98.742h45.402v-1.058H70.234z"/>
                </g>
            </g>
            <path fill="#5398C3" d="M-19.258 141.579h378.34v-3.635h-378.34z" mask="url(#c)"/>
            <path fill="#92C1DB" d="M-19.258 143.333h378.34v-1.796h-378.34z" mask="url(#c)"/>
        </g>
        <path fill="#272A29" d="M210.675 179.063c-8.839 0-16.004 7.3-16.004 16.31 0 9.004 7.165 16.304 16.004 16.304 8.838 0 16.003-7.3 16.003-16.304 0-9.01-7.165-16.31-16.003-16.31"/>
        <path fill="#5F6260" d="M210.655 183.49c-6.428 0-11.639 5.308-11.639 11.86 0 6.548 5.211 11.86 11.64 11.86 6.427 0 11.637-5.312 11.637-11.86 0-6.552-5.21-11.86-11.638-11.86"/>
        
        <path fill="#FAFAFA" d="M235.447 163.05c-3.594-2.091-32.748-8.716-32.748-8.716s-28.525-24.882-52.487-26.277c-23.06-1.345-52.507.487-62.778 2.341l.189-.166-13.106 1.727s-.904 1.151-.565 2.302c.34 1.151 2.373 2.878.113 7.715l.196-.172c-2.917 4.81-5.216 10.045-6.889 13.344-.702 1.383-9.585 8.484-13.008 27.322-2.383 13.117 7.703 20.173 7.703 20.173l185.418.055 3.196-13.138s-5.306-16.57-6.333-18.136c-1.028-1.572-5.306-6.281-8.9-8.373"/>
        <path fill="#D11C21" d="M56.173 194.56c2.372 5.279 6.318 8.04 6.318 8.04l185.419.056 1.93-7.942H57.485c-.472 0-.907-.055-1.312-.155"/>
        <path fill="#3D89BA" d="M237.579 193.68c0 2.263 1.8 4.095 4.022 4.095h7.445l2.054-8.197h-9.5c-2.22 0-4.021 1.838-4.021 4.101"/>
        <path fill="#92C1DB" d="M243.598 169.633c-3.528-3.99-7.514-4.959-7.514-4.959-5.82 1.046 4.45 9.763 6.504 10.288 2.053.52 3.296-.592 3.296-.592l-.428-1.361c-.39-1.24-1.002-2.413-1.858-3.376"/>
        <path fill="#205C8C" d="M80.788 179.063c-8.79 0-15.925 7.267-15.925 16.227 0 8.97 7.135 16.237 15.925 16.237 8.804 0 15.935-7.266 15.935-16.237 0-8.96-7.131-16.227-15.935-16.227"/>
        <path fill="#3D89BA" d="M80.729 183.49c-6.359 0-11.521 5.258-11.521 11.739 0 6.486 5.162 11.744 11.52 11.744 6.37 0 11.528-5.258 11.528-11.744 0-6.48-5.159-11.738-11.527-11.738"/>
        <path fill="#5398C3" d="M91.797 193.358l-7.426 1.251c.049.232.08.465.08.708 0 .172-.031.355-.054.52l7.356 1.251a11.574 11.574 0 0 1-1.944 4.705l-5.988-4.356c-.23.349-.528.648-.856.908l4.268 6.093a11.27 11.27 0 0 1-4.616 2.02l-1.209-7.388a3.142 3.142 0 0 1-1.26.027l-1.218 7.422a11.14 11.14 0 0 1-4.749-1.887l4.336-6.193a3.694 3.694 0 0 1-.905-.919l-6.126 4.46a11.595 11.595 0 0 1-2.071-4.825l7.558-1.284c-.017-.188-.048-.365-.048-.554 0-.249.031-.503.075-.736l-7.63-1.29a11.645 11.645 0 0 1 1.978-4.93l6.37 4.626c.244-.332.542-.63.883-.857l-4.55-6.503a11.095 11.095 0 0 1 4.833-1.976l1.292 7.886c.168-.027.336-.055.505-.055.24 0 .466.028.696.078l1.287-7.848a11.21 11.21 0 0 1 4.7 2.109l-4.474 6.397c.314.238.603.526.833.858l6.224-4.527a11.608 11.608 0 0 1 1.85 4.81zm-11.223-10.974c-6.865 0-12.453 5.695-12.453 12.69 0 7.012 5.588 12.707 12.453 12.707 6.875 0 12.467-5.695 12.467-12.707 0-6.995-5.592-12.69-12.467-12.69z"/>
        <path fill="#6DA9CB" d="M80.844 190.132c-2.527 0-4.576 2.086-4.576 4.665 0 2.574 2.05 4.66 4.576 4.66 2.528 0 4.576-2.086 4.576-4.66 0-2.579-2.048-4.665-4.576-4.665"/>
        <path fill="#FFF" d="M73.517 154.162c-3.313-.139-4.31 5.119-4.31 5.119l137.969 5.18 7.52-1.854c-1.53-1.849-14.207-3.044-14.207-3.044l-126.972-5.401"/>
        <path fill="#92C1DB" d="M188.63 168.365c-.025 1.002-.042 2.087-.06 3.221-.138 8.518-.346 21.385-4.676 23.377-1.392.637-16.805.67-69.301-.348-1.563 0-2.806-1.34-2.717-2.928l2.142-38.026 71.752 3.553c.625.647 3.05 3.675 2.86 11.151m-2.163-12.38l-.174-.133-73.493-3.907-.132 1.56-2.176 38.536c-.116 2.059 1.456 3.797 3.475 3.852 15.343.398 35.175 1.444 44.446 1.444 15.69 0 24.42-.37 26.04-1.118 5.112-2.352 5.312-14.693 5.472-24.61.019-1.13.036-2.209.061-3.205.234-9.308-3.366-12.291-3.519-12.419"/>
        <path fill="#205C8C" d="M210.597 179.063c-8.79 0-15.926 7.267-15.926 16.227 0 8.97 7.136 16.237 15.926 16.237 8.803 0 15.934-7.266 15.934-16.237 0-8.96-7.13-16.227-15.934-16.227"/>
        <path fill="#3D89BA" d="M210.672 182.384c-6.733 0-12.199 5.567-12.199 12.43 0 6.868 5.466 12.435 12.199 12.435 6.743 0 12.205-5.567 12.205-12.435 0-6.863-5.462-12.43-12.205-12.43"/>
        <path fill="#5398C3" d="M222.149 193.358l-7.426 1.251c.048.232.08.465.08.708 0 .172-.032.355-.054.52l7.356 1.251a11.581 11.581 0 0 1-1.944 4.705l-5.989-4.356c-.23.349-.527.648-.855.908l4.267 6.093a11.27 11.27 0 0 1-4.615 2.02l-1.21-7.388a3.142 3.142 0 0 1-1.259.027l-1.218 7.422a11.14 11.14 0 0 1-4.75-1.887l4.336-6.193a3.7 3.7 0 0 1-.904-.919l-6.127 4.46a11.603 11.603 0 0 1-2.071-4.825l7.56-1.284c-.018-.188-.05-.365-.05-.554 0-.249.032-.503.076-.736l-7.63-1.29a11.645 11.645 0 0 1 1.977-4.93l6.371 4.626c.244-.332.541-.63.883-.857l-4.551-6.503a11.09 11.09 0 0 1 4.833-1.976l1.292 7.886c.169-.027.337-.055.506-.055.24 0 .466.028.696.078l1.286-7.848a11.213 11.213 0 0 1 4.7 2.109l-4.473 6.397c.314.238.602.526.833.858l6.224-4.527a11.608 11.608 0 0 1 1.85 4.81zm-11.223-10.974c-6.865 0-12.453 5.695-12.453 12.69 0 7.012 5.588 12.707 12.453 12.707 6.874 0 12.467-5.695 12.467-12.707 0-6.995-5.593-12.69-12.467-12.69z"/>
        <path fill="#6DA9CB" d="M210.653 190.132c-2.527 0-4.576 2.086-4.576 4.665 0 2.574 2.049 4.66 4.576 4.66 2.527 0 4.575-2.086 4.575-4.66 0-2.579-2.048-4.665-4.575-4.665"/>
        <path fill="#92C1DB" d="M63.53 164.12h-2.643l-1.356 2.502-1.186 2.806 5.232-.1a2.546 2.546 0 0 0 2.239-1.439c.85-1.732-.386-3.768-2.287-3.768"/>
        <path fill="#D11C21" d="M61.356 170.762l-3.376.06-.96 2.474-.847 2.779 5.231-.1a2.562 2.562 0 0 0 2.24-1.444c.85-1.733-.387-3.77-2.288-3.77"/>
        <path fill="#CECEC6" d="M130.867 161.403a.846.846 0 0 1-.841.825v.415l-.035-.415-10.282-.432a.826.826 0 0 1-.584-.276.856.856 0 0 1-.22-.615l.048-1.223a.852.852 0 0 1 .873-.819l10.285.426a.84.84 0 0 1 .582.277.864.864 0 0 1 .223.614l-.05 1.223zm-.723-2.938l-10.351-.432c-.892 0-1.617.708-1.652 1.616l-.05 1.223a1.7 1.7 0 0 0 .436 1.212c.104.11.235.188.362.266l-.21-.011c5.615 3.243 11.957.608 11.957.608h-.056a1.674 1.674 0 0 0 1.1-1.505l.049-1.229a1.684 1.684 0 0 0-.438-1.206 1.618 1.618 0 0 0-1.147-.542z"/>
        <path fill="#E3F0F5" d="M92.393 134.095s-5.305.172-12.323 16.919l115.103 4.532s-23.877-19.01-33.29-21.279c-9.414-2.263-31.321-4.881-69.49-.172"/>
        <path fill="#DAE8E6" d="M92.562 134.08a.266.266 0 0 1 .09-.022c-.03 0-.06.012-.09.023m.1-.034"/>
        <path fill="#C0D4D4" d="M195.082 155.21l-32.999-1.3c4.903-2.44 9.794-4.903 14.54-7.66 1.193-.691 2.395-1.367 3.592-2.053a314.248 314.248 0 0 1 14.867 11.013"/>
        <path fill="#3D89BA" d="M81.238 149.947c6.459-14.975 11.289-15.562 11.38-15.568 14.1-1.743 27.173-2.623 38.854-2.623 16.394 0 26.08 1.743 30.395 2.784 7.719 1.86 25.71 15.468 31.324 19.813l-111.953-4.406zm80.944-16.763c-4.372-1.057-14.177-2.822-30.71-2.822-11.736 0-24.864.885-38.959 2.628-.588.017-5.943.67-12.931 17.34a.712.712 0 0 0 .052.647.69.69 0 0 0 .551.326l115.102 4.533h.027a.685.685 0 0 0 .643-.46.71.71 0 0 0-.222-.79c-.978-.781-24.102-19.127-33.553-21.402z"/>
        <path fill="#3D89BA" d="M183.266 154.635l11.296.177-10.441-7.848-.855 7.67"/>
        <path fill="#403E3A" d="M180.482 154.597l1.084-4.887s-1.256-2.092-4.222-2.557c-2.968-.465-6.162-.232-6.505 2.557-.341 2.795.686 5.12 2.169 5.12s2.054.464 2.054.464l2.51 5.114s6.732 2.905 6.161-.93l-3.251-4.881"/>
        <path fill="#3D89BA" d="M115.91 131.994l-3.252 20.228 10.156.642-.4-21.396-6.503.526"/>
        
        <path fill="#53636A" d="M267.685 192.678h-.007l.084-.886.006.017-.083.869"/>
        <path fill="#82939C" d="M245.78 133.621l-.054-.088.053.088 2.766-1.046.804.814-.804-.814-2.766 1.046"/>
        <g>
            <path fill="#000" d="M279.2 172.312l.552 2.547-.318 10.682.83 6.647.093 2.02-1.34-.032-.736-8.696.736-10.497z"/>
            <path fill="#2C5288" d="M280.378 177.98l.085 1.906a20.248 20.248 0 0 0-.187-.172c-.002 0 .104-1.736.102-1.735"/>
            <g transform="matrix(-1 0 0 1 287 160.628)">
                <mask id="e" fill="#fff">
                    <use xlink:href="#d"/>
                </mask>
                <path fill="#205C8C" d="M29.039 15.922L27.12 6.281l-.005-.001c-.211-.575-.995-2.222-3.18-2.794L15.392.236l-.006-.055c-.001-.01.002-.02.002-.03l-.054-.02-.11.042-.108-.041-.055.02c0 .01.003.019.002.029l-.006.056-9.099 3.269c-2.184.573-2.968 2.22-3.18 2.794h-.005L.065 21.366a4.119 4.119 0 0 0 .747 3.187s4.726-4.373 5.724-5.294l.087-1.906c-.003-.002.103 1.734.1 1.734l-.187.172c-.201 4.495-.692 15.407-.693 15.407l-.175 7.503.845 42.892 3.675-.373 4.669-42.024 2.957 42.397 3.676-.373 2.994-42.502c.022-.31.195-15.04.188-15.35 0 0-.73-3.989-.667-9.27.018-1.594 4.992-1.643 5.034-1.643" mask="url(#e)"/>
            </g>
            <path fill="#000" d="M280.22 196.712l.114-.003-.115.003"/>
            <path fill="#205C8C" d="M274.18 246.94l2.697-1.74h3.62s.888 1.74.58 3.708h-9.288s.154-1.74 2.392-1.968"/>
            <path fill="#C39276" d="M270.15 156.778l5.226 1.114-1.245 6.028c-.01.046-.027.087-.038.132-.006.035-.004.07-.012.105-.298 1.448-1.7 2.374-3.129 2.07-1.293-.276-2.157-1.466-2.09-2.762a2.595 2.595 0 0 1 .042-.66l1.245-6.027z"/>
            <path fill="#205C8C" d="M261.27 246.94l4.057-1.74h3.89s.859 1.74.56 3.708h-10.82s.149-1.74 2.313-1.968"/>
            <path fill="#C39276" d="M268.541 150.459l9.55 1.178-.578 4.539c-.165 1.415-1.775 1.766-3.074 2.701-.988.712-1.548 2.224-2.61 2.093-2.459-.304-4.216-2.57-3.925-5.062l.637-5.45z"/>
            <path fill="#12406D" d="M274.667 147.645s4.282-.057 3.811 3.975l-.413 3.528s-.444 2.846-2.006 4.195c-.255.221-1.302.819-1.514.66l1.25-3.032s1.326.3 1.617-2.195c.107-.913-.248-.98-.53-1.016-.378-.046-.73.495-.73.495l-.71-.088.163-1.391.003-.01-.027.006s.214-1.422-1.242-1.602l-5.798-.715s-.274-.05-.498-.53c-.665-1.429.563-3.028 2.106-2.838l4.518.558z"/>
            <path fill="#12406D" d="M271.353 156.299c.83.102 1.743.908 1.645 1.752l-1.426-.176c-.829-.102-1.422-.87-1.323-1.712l1.104.136z"/>
            <path fill="#12406D" d="M269.316 156.047l1.105.137a1.514 1.514 0 0 1-1.68 1.342l-1.105-.137a1.514 1.514 0 0 1 1.68-1.342"/>
            <path fill="#12406D" d="M269.08 157.427c.29.343.566.504.979.554.93.115 1.415-.259 1.415-.259l1.42.175c.905-.46 2.288-1.604 2.61-4.368l1.127-.183-1.02 4.887c-.085.23-1.248 3.287-4.135 2.93 0 0-4.302.177-3.58-3.882l1.185.146z"/>
            <path fill="#000" d="M263.657 178.434l-.676-.25.185-5.106z"/>
            <path fill="#D11C21" d="M271.365 195.967l-.279.013c-.393-12.574-.483-29.619-.482-29.795l.7.007c-.001.176-.24 17.213.06 29.775"/>
            <path fill="#D11C21" d="M269.307 160.87s-.077 3.121 1.967 5.19l-1.807 1.975s-1.278-1.929-1.605-2.585c-.785-1.57-.219-2.899-.219-2.899l1.664-1.681z"/>
            <path fill="#D11C21" d="M276.473 162.366s-.163 1.219-1.35 3.01c-1.137 1.719-2.371 2.881-2.371 2.881l-1.606-2.068c2.043-2.068 3.63-5.392 3.63-5.392l1.697 1.57z"/>
            <path fill="#333" d="M270.793 188.053h-10.655l-4.962-14.773h10.655z"/>
            <path fill="#C39276" d="M256.325 178.37h2.697c.305 0 .552.251.552.561 0 .31-.247.561-.552.561h-2.697a.557.557 0 0 1-.552-.56c0-.31.247-.562.552-.562"/>
            <path fill="#C39276" d="M256.774 179.465h2.697c.304 0 .551.251.551.562 0 .309-.247.56-.551.56h-2.697a.557.557 0 0 1-.552-.56c0-.31.247-.562.552-.562"/>
            <path fill="#C39276" d="M257.117 180.561h2.697c.305 0 .552.251.552.561 0 .31-.247.561-.552.561h-2.697a.557.557 0 0 1-.552-.561c0-.31.247-.56.552-.56"/>
            <path fill="#C39276" d="M257.513 181.523h1.575c.305 0 .553.251.553.56 0 .31-.248.562-.553.562h-1.575a.556.556 0 0 1-.552-.561c0-.31.247-.561.552-.561"/>
            <path fill="#C39276" d="M256.952 178.55l1.727 5.121-2.457-1.33-.633-1.896.184-1.47z"/>
            <path fill="#ECF4F8" d="M270.605 174.07l-2.078 5.699-.58-.22 2.077-5.698z"/>
            <path fill="#C39276" d="M273.238 180.667l1.316 3.197-2.378-.835c-.3.642-1.952.424-1.952.424l-1.014-.113-1.394-4.15 2.408-.259 3.014 1.736z"/>
            <path fill="#205C8C" d="M280.686 179.694l5.502 5.485-1.092.522c-.845.405-1.8.511-2.71.303l-9.59-2.191.875-3.786 7.015-.333z"/>
            <path fill="#D11C21" d="M274.693 179.722l-.723 4.294-1.475-.256.724-4.295z"/>
        </g>
        <g>
            <path fill="#FFE0B3" d="M241.03 181.815l3.426 10.112 2.733 3.702.61 3.008-.436 1.693a.608.608 0 0 1-.96-.212c-.386-.684-2.055-3.775-2.055-3.775s-.544 0-.354.668c.19.668.313 1.698-.406 1.983l-1.063-3.008-.452-2.646-4.859-7.678-2.609-14.187 3.775-4.608 2.65 14.948zM212.386 182.053l2.784-11.391 5.568-2.071-4.207 13.98-1.587 11.39.57 2.92.072 3.19c-.775 0-1.027-1.035-1.078-1.709-.052-.673-.57-.491-.57-.491s-.447 3.484-.565 4.256a.622.622 0 0 1-.275.481.612.612 0 0 1-.547.067l-1.027-1.423-.514-3.03 1.279-4.576.097-11.593z"/>
            <path fill="#000" d="M212.386 182.053l2.784-11.391 4.058 3.107c-.129.336-3.328.176-3.328.176-.694 2.697-1.48 5.778-1.829 6.964-1.027 3.443-.308 11.116-.657 12.276a23.83 23.83 0 0 0-.853 3.78c-.257 1.89-.483 3.919.077 5.695h-.077l-1.027-1.424-.514-3.029 1.28-4.577.086-11.577zM236.213 174.152l-.534.212-.478-3.314.447.963z" opacity=".1"/>
            <path fill="#92C1DB" d="M214.02 172.692l1.767-6.265a.828.828 0 0 1 .04-.13v-.067a4.408 4.408 0 0 1 3.082-2.708l8.336-3.153v-.057-.026h.057l.102.041.108-.041h.052v.083l8.335 3.153a4.408 4.408 0 0 1 3.082 2.708v.067l.041.13 1.115 6.637.98 8.445 3.596 10.33-2.815 2.07-5.393-8.543-.806-6.125.18 5.074.308 12.618c-5.65-.067-11.448 0-17.129 0l.18-12.623.354-9.718-3.081 7.963-1.192 11.173h-3.39l.437-11.675 1.654-9.361z"/>
            <path fill="#FFF" d="M227.296 160.312v-.026h.057l.103.041.108-.041h.05v.083l4.623 1.755c-2.316 3.314-2.711 8.315-3.081 12.426-.478.544-.37 1.155-.396 1.88-.21 5.695 0 14.71-.185 20.524h-.513c.41-5.069-.129-14.29-.17-19.157a13.898 13.898 0 0 0-.092-1.554c.32-.72.125-1.567-.478-2.07a13.394 13.394 0 0 0-.698-1.616c-1.783-3.542-3.2-6.524-3.868-10.49l4.494-1.698s.041-.037.046-.057z"/>
            <path fill="#FFE0B3" d="M230.024 162.58a2.619 2.619 0 0 1-2.607 2.513 2.619 2.619 0 0 1-2.606-2.513v-5.877h5.213v5.877z"/>
            <path fill="#000" d="M230.024 159.768v.518a3.182 3.182 0 0 1-3.847-.782s2.126 1.263 3.847.264z" opacity=".1"/>
            <path fill="#FFE0B3" d="M232.32 155.895a4.424 4.424 0 0 1-1.28 3.121 4.353 4.353 0 0 1-3.096 1.29c-2.414 0-4.962-2.857-4.962-5.296l-.046-4.437h9.384v5.322z"/>
            <path fill="#12406D" d="M226.706 147.13h6.677c0 3.38-1.084 3.437-1.084 3.437h-5.696a1.314 1.314 0 0 0-1.002.388 1.337 1.337 0 0 0-.385 1.01v1.367h-.698s-.277-.559-.652-.559c-.273 0-.627 0-.627.911 0 2.439 1.186 2.279 1.186 2.279l.38 2.889c-2.095-1.103-2.239-4.883-2.239-4.883v-3.448c0-3.95 4.14-3.392 4.14-3.392z"/>
            <path fill="#000" d="M230.24 152.26l.467 3.221s-.745 1.036-1.541-.124h1.166l-.093-3.096z" opacity=".1"/>
            <path fill="#BAD9E9" d="M228.231 175.182h-1v21.788h1zM215.338 192.28l-3.338-.133a.264.264 0 0 0-.274.253l-.044 1.139a.264.264 0 0 0 .253.274l3.337.133a.264.264 0 0 0 .274-.253l.045-1.138a.264.264 0 0 0-.253-.274zM245.217 192.127l-.51-1.108a.264.264 0 0 0-.352-.128l-3.197 1.498a.264.264 0 0 0-.128.35l.51 1.107a.264.264 0 0 0 .352.129l3.197-1.498a.264.264 0 0 0 .128-.35z"/>
            <path fill="#BAD9E9" d="M224.81 160.602c.014 1.36.277 2.707.776 3.971l2.645 10.609h-.405l-6.23-8.315 1.607-2.014-1.608-2.336 3.216-1.915z"/>
            <path fill="#BAD9E9" d="M228.971 175.182h-1v21.751h1z"/>
            <path fill="#BAD9E9" d="M230.024 160.602l3.38 1.915-1.608 2.336 1.607 2.014-4.432 8.315h-.406l.986-10.257c.352-1.413.51-2.867.473-4.323z"/>
            <path fill="#52504F" d="M227.826 195.302h-8.742v1.631h8.742zM236.213 195.302h-7.247v1.631h7.247z"/>
            <path fill="#286B9E" d="M236.125 195.349l.226 7.71-2.732 42.317-3.595.362-1.824-43.078-.837-.036-4.848 42.752-3.595.362-.047-43.518.319-6.933c.046.026 16.846.13 16.933.062z"/>
            <path fill="#000" d="M230.712 245.277h-.724l-1.788-42.602.237-.005z" opacity=".1"/>
            <path fill="#12406D" d="M222.32 245.277l2.568 1.704c2.126.222 2.275 1.931 2.275 1.931h-8.85a6.78 6.78 0 0 1 .555-3.624l3.452-.01zM233.82 245.277l3.99 1.704c2.132.222 2.28 1.931 2.28 1.931h-10.652a6.806 6.806 0 0 1 .55-3.624l3.831-.01z"/>
            <path fill="#000" d="M230.712 245.277a3.62 3.62 0 0 0-.149.89 3.69 3.69 0 0 0 .91 2.745h-2.055a6.806 6.806 0 0 1 .55-3.624l.744-.01z" opacity=".1"/>
            <path fill="#BAD9E9" d="M236.146 194.117v.911a.302.302 0 0 1-.303.3h-7.083v-1.512h7.083a.297.297 0 0 1 .303.3zM218.945 193.811h8.675v1.512h-8.675a.297.297 0 0 1-.298-.3v-.906a.302.302 0 0 1 .298-.306z"/>
        </g>
    </g>
</svg>